<svg width="21" height="16" viewBox="0 0 21 16" fill="none" xmlns="http://www.w3.org/2000/svg">
<path d="M10.3 8.9L7.9 9.5L6.825 8.7C6.775 8.66667 6.64167 8.63333 6.425 8.6L6.3 8.65C6.15 8.68333 6.04167 8.77083 5.975 8.9125C5.90833 9.05417 5.91667 9.19167 6 9.325L7.15 11.325C7.21667 11.425 7.3 11.4958 7.4 11.5375C7.5 11.5792 7.60833 11.5833 7.725 11.55L16.25 9.3C16.5 9.23333 16.6875 9.07917 16.8125 8.8375C16.9375 8.59583 16.9667 8.35 16.9 8.1C16.8333 7.85 16.6875 7.6625 16.4625 7.5375C16.2375 7.4125 16 7.38333 15.75 7.45L13.3 8.1L9.575 4.6C9.49167 4.51667 9.39167 4.4625 9.275 4.4375C9.15833 4.4125 9.04167 4.41667 8.925 4.45L8.8 4.475C8.56667 4.525 8.40417 4.65833 8.3125 4.875C8.22083 5.09167 8.23333 5.3 8.35 5.5L10.3 8.9ZM2.5 16C1.95 16 1.47917 15.8042 1.0875 15.4125C0.695833 15.0208 0.5 14.55 0.5 14V10.625C0.5 10.4417 0.558333 10.2833 0.675 10.15C0.791667 10.0167 0.941667 9.93333 1.125 9.9C1.525 9.76667 1.85417 9.525 2.1125 9.175C2.37083 8.825 2.5 8.43333 2.5 8C2.5 7.56667 2.37083 7.175 2.1125 6.825C1.85417 6.475 1.525 6.23333 1.125 6.1C0.941667 6.06667 0.791667 5.98333 0.675 5.85C0.558333 5.71667 0.5 5.55833 0.5 5.375V2C0.5 1.45 0.695833 0.979167 1.0875 0.5875C1.47917 0.195833 1.95 0 2.5 0H18.5C19.05 0 19.5208 0.195833 19.9125 0.5875C20.3042 0.979167 20.5 1.45 20.5 2V14C20.5 14.55 20.3042 15.0208 19.9125 15.4125C19.5208 15.8042 19.05 16 18.5 16H2.5ZM2.5 14H18.5V2H2.5V4.55C3.11667 4.91667 3.60417 5.40417 3.9625 6.0125C4.32083 6.62083 4.5 7.28333 4.5 8C4.5 8.71667 4.32083 9.37917 3.9625 9.9875C3.60417 10.5958 3.11667 11.0833 2.5 11.45V14Z" fill="#B5BBC3"/>
</svg>
