<svg width="20" height="10" viewBox="0 0 20 10" fill="none" xmlns="http://www.w3.org/2000/svg">
<path d="M3.8249 6.00002L5.6999 7.90002C5.88324 8.08336 5.97907 8.31252 5.9874 8.58752C5.99574 8.86252 5.8999 9.10002 5.6999 9.30002C5.51657 9.48336 5.28324 9.57502 4.9999 9.57502C4.71657 9.57502 4.48324 9.48336 4.2999 9.30002L0.699902 5.70002C0.499902 5.50002 0.399902 5.26669 0.399902 5.00002C0.399902 4.73336 0.499902 4.50002 0.699902 4.30002L4.2999 0.700024C4.4999 0.500024 4.73324 0.404191 4.9999 0.412524C5.26657 0.420858 5.4999 0.525024 5.6999 0.725024C5.88324 0.925024 5.97907 1.15836 5.9874 1.42502C5.99574 1.69169 5.8999 1.92502 5.6999 2.12502L3.8249 4.00002H16.1499L14.2749 2.12502C14.0749 1.92502 13.9749 1.68752 13.9749 1.41252C13.9749 1.13752 14.0749 0.900024 14.2749 0.700024C14.4749 0.500024 14.7124 0.400024 14.9874 0.400024C15.2624 0.400024 15.4999 0.500024 15.6999 0.700024L19.2999 4.30002C19.4999 4.50002 19.5999 4.73336 19.5999 5.00002C19.5999 5.26669 19.4999 5.50002 19.2999 5.70002L15.6999 9.30002C15.5166 9.48336 15.2874 9.57919 15.0124 9.58752C14.7374 9.59586 14.4999 9.50002 14.2999 9.30002C14.0999 9.10002 13.9957 8.86252 13.9874 8.58752C13.9791 8.31252 14.0749 8.07502 14.2749 7.87502L16.1499 6.00002H3.8249Z" fill="#141414"/>
</svg>
