<svg width="24" height="25" viewBox="0 0 24 25" fill="none" xmlns="http://www.w3.org/2000/svg">
<g opacity="0.5">
<mask id="mask0_14_1532" style="mask-type:alpha" maskUnits="userSpaceOnUse" x="0" y="0" width="24" height="25">
<rect y="0.5" width="24" height="24" fill="#D9D9D9"/>
</mask>
<g mask="url(#mask0_14_1532)">
<path d="M12 12.5C12.55 12.5 13.0208 12.3042 13.4125 11.9125C13.8042 11.5208 14 11.05 14 10.5C14 9.95 13.8042 9.47917 13.4125 9.0875C13.0208 8.69583 12.55 8.5 12 8.5C11.45 8.5 10.9792 8.69583 10.5875 9.0875C10.1958 9.47917 10 9.95 10 10.5C10 11.05 10.1958 11.5208 10.5875 11.9125C10.9792 12.3042 11.45 12.5 12 12.5ZM12 22.125C11.8667 22.125 11.7333 22.1 11.6 22.05C11.4667 22 11.35 21.9333 11.25 21.85C8.81667 19.7 7 17.7042 5.8 15.8625C4.6 14.0208 4 12.3 4 10.7C4 8.2 4.80417 6.20833 6.4125 4.725C8.02083 3.24167 9.88333 2.5 12 2.5C14.1167 2.5 15.9792 3.24167 17.5875 4.725C19.1958 6.20833 20 8.2 20 10.7C20 12.3 19.4 14.0208 18.2 15.8625C17 17.7042 15.1833 19.7 12.75 21.85C12.65 21.9333 12.5333 22 12.4 22.05C12.2667 22.1 12.1333 22.125 12 22.125Z" fill="#0C1600"/>
</g>
</g>
</svg>
