<svg width="721" height="563" viewBox="0 0 721 563" fill="none" xmlns="http://www.w3.org/2000/svg">
<path d="M473.156 563C431.849 563 396.487 548.299 367.072 518.898C337.656 489.497 322.948 454.153 322.948 412.867V150.133C322.948 129.49 315.594 111.818 300.886 97.1175C286.178 82.4169 268.497 75.0667 247.844 75.0667C227.19 75.0667 209.509 82.4169 194.801 97.1175C180.094 111.818 172.74 129.49 172.74 150.133V418.497L206.536 384.717C213.421 377.836 222.027 374.395 232.354 374.395C242.68 374.395 251.599 378.148 259.109 385.655C266.62 393.162 270.219 402.232 269.906 412.867C269.593 423.501 265.681 432.572 258.171 440.078L161.474 536.727C157.719 540.48 153.651 543.139 149.27 544.703C144.888 546.266 140.194 547.048 135.188 547.048C130.181 547.048 125.487 546.266 121.105 544.703C116.724 543.139 112.656 540.48 108.901 536.727L11.2656 439.14C3.75521 431.633 0 422.719 0 412.397C0 402.076 3.75521 393.162 11.2656 385.655C18.776 378.148 27.6947 374.395 38.0215 374.395C48.3483 374.395 57.2669 378.148 64.7773 385.655L97.6354 418.497V150.133C97.6354 108.847 112.343 73.5028 141.759 44.1017C171.175 14.7006 206.536 0 247.844 0C289.151 0 324.513 14.7006 353.928 44.1017C383.344 73.5028 398.052 108.847 398.052 150.133V412.867C398.052 433.51 405.406 451.182 420.114 465.883C434.822 480.583 452.503 487.933 473.156 487.933C493.81 487.933 511.491 480.583 526.199 465.883C540.906 451.182 548.26 433.51 548.26 412.867V144.503L514.464 178.283C507.579 185.164 498.973 188.605 488.646 188.605C478.32 188.605 469.401 184.852 461.891 177.345C454.38 169.838 450.781 160.768 451.094 150.133C451.407 139.499 455.319 130.428 462.829 122.922L559.526 26.2733C563.281 22.52 567.349 19.8614 571.73 18.2975C576.112 16.7336 580.806 15.9517 585.812 15.9517C590.819 15.9517 595.513 16.7336 599.895 18.2975C604.276 19.8614 608.344 22.52 612.099 26.2733L709.734 123.86C717.245 131.367 721 140.281 721 150.603C721 160.924 717.245 169.838 709.734 177.345C702.224 184.852 693.305 188.605 682.979 188.605C672.652 188.605 663.733 184.852 656.223 177.345L623.365 144.503V412.867C623.365 454.153 608.657 489.497 579.241 518.898C549.825 548.299 514.464 563 473.156 563Z" fill="#5673F9"/>
</svg>
