<svg width="17" height="20" viewBox="0 0 17 20" fill="none" xmlns="http://www.w3.org/2000/svg">
<path d="M2.5 20C1.95 20 1.47917 19.8042 1.0875 19.4125C0.695833 19.0208 0.5 18.55 0.5 18V2C0.5 1.45 0.695833 0.979167 1.0875 0.5875C1.47917 0.195833 1.95 0 2.5 0H14.5C15.05 0 15.5208 0.195833 15.9125 0.5875C16.3042 0.979167 16.5 1.45 16.5 2V18C16.5 18.55 16.3042 19.0208 15.9125 19.4125C15.5208 19.8042 15.05 20 14.5 20H2.5ZM12 11.5C12.4167 11.5 12.7708 11.3542 13.0625 11.0625C13.3542 10.7708 13.5 10.4167 13.5 10C13.5 9.58333 13.3542 9.22917 13.0625 8.9375C12.7708 8.64583 12.4167 8.5 12 8.5C11.5833 8.5 11.2292 8.64583 10.9375 8.9375C10.6458 9.22917 10.5 9.58333 10.5 10C10.5 10.4167 10.6458 10.7708 10.9375 11.0625C11.2292 11.3542 11.5833 11.5 12 11.5Z" fill="#5673F9"/>
</svg>
